<svg width="28" height="25" viewBox="0 0 28 25" fill="none" xmlns="http://www.w3.org/2000/svg">
<path d="M5.10775 1.241C0.20575 6.218 0.20575 14.317 5.10775 19.295C5.38775 19.579 5.38775 20.039 5.10775 20.323C4.97175 20.461 4.78975 20.536 4.60175 20.536C4.41375 20.536 4.23175 20.461 4.09575 20.323C-1.36525 14.779 -1.36525 5.758 4.09575 0.213C4.37575 -0.071 4.82875 -0.071 5.10875 0.213C5.38875 0.497 5.38875 0.957 5.10875 1.241H5.10775ZM7.12275 17.25C7.40275 17.534 7.40275 17.994 7.12275 18.278C6.98675 18.416 6.80475 18.491 6.61675 18.491C6.42875 18.491 6.24675 18.416 6.11075 18.278C1.75975 13.861 1.75975 6.674 6.11075 2.257C6.39075 1.973 6.84375 1.973 7.12375 2.257C7.40375 2.541 7.40375 3.001 7.12375 3.285C3.33175 7.135 3.33175 13.4 7.12375 17.25H7.12275ZM9.13575 4.302C9.41475 4.586 9.41475 5.046 9.13575 5.33C6.45375 8.053 6.45375 12.483 9.13575 15.206C9.41575 15.49 9.41575 15.95 9.13575 16.234C8.99975 16.372 8.81775 16.447 8.62975 16.447C8.44175 16.447 8.25975 16.372 8.12375 16.234C6.55675 14.642 5.69275 12.523 5.69275 10.268C5.69275 8.013 6.55675 5.893 8.12375 4.302C8.40375 4.018 8.85675 4.018 9.13675 4.302H9.13575ZM22.8918 1.241C22.6118 0.957 22.6118 0.497 22.8918 0.213C23.1718 -0.071 23.6248 -0.071 23.9048 0.213C29.3658 5.757 29.3658 14.778 23.9048 20.323C23.7678 20.461 23.5868 20.536 23.3988 20.536C23.2108 20.536 23.0287 20.461 22.8927 20.323C22.6127 20.039 22.6127 19.579 22.8927 19.295C27.7947 14.317 27.7947 6.218 22.8927 1.241H22.8918ZM20.8768 17.25C24.6688 13.4 24.6688 7.136 20.8768 3.285C20.5968 3.001 20.5968 2.541 20.8768 2.257C21.1568 1.973 21.6097 1.973 21.8897 2.257C26.2407 6.674 26.2407 13.861 21.8897 18.278C21.7537 18.416 21.5718 18.491 21.3838 18.491C21.1958 18.491 21.0138 18.416 20.8778 18.278C20.5978 17.994 20.5978 17.534 20.8778 17.25H20.8768ZM18.8638 4.302C19.1438 4.018 19.5968 4.018 19.8768 4.302C21.4438 5.893 22.3078 8.013 22.3078 10.268C22.3078 12.523 21.4448 14.642 19.8768 16.234C19.7408 16.372 19.5588 16.447 19.3708 16.447C19.1828 16.447 19.0007 16.372 18.8647 16.234C18.5847 15.95 18.5847 15.49 18.8647 15.206C21.5467 12.483 21.5467 8.053 18.8647 5.33C18.5857 5.046 18.5857 4.586 18.8647 4.301L18.8638 4.302ZM10.4348 10.365C10.4348 8.37 12.0337 6.747 13.9987 6.747C15.9637 6.747 17.5627 8.37 17.5627 10.365C17.5627 12.094 16.3528 13.565 14.7148 13.906V24.274C14.7148 24.676 14.3947 25.001 13.9987 25.001C13.6027 25.001 13.2828 24.676 13.2828 24.274V13.906C11.6448 13.566 10.4348 12.094 10.4348 10.365V10.365ZM13.9998 12.696C15.2778 12.696 16.3178 11.641 16.3178 10.343C16.3178 9.045 15.2788 7.99 13.9998 7.99C12.7218 7.99 11.6818 9.045 11.6818 10.343C11.6818 11.641 12.7208 12.696 13.9998 12.696Z" fill="black"/>
</svg>
