<svg width="13" height="17" viewBox="0 0 13 17" fill="none" xmlns="http://www.w3.org/2000/svg">
<path d="M0.730469 13.5195V11.7686H3.2334V10.1787H0.730469V8.41699H3.2334V2.36914H1.38574V0.5H7.30469C8.10677 0.5 8.83008 0.589518 9.47461 0.768555C10.1191 0.947591 10.6491 1.1875 11.0645 1.48828C11.487 1.78906 11.8379 2.14714 12.1172 2.5625C12.4036 2.9707 12.6077 3.39681 12.7295 3.84082C12.8512 4.28483 12.9121 4.75391 12.9121 5.24805C12.9121 5.89258 12.8083 6.5013 12.6006 7.07422C12.3929 7.64714 12.0742 8.1735 11.6445 8.65332C11.2148 9.12598 10.6276 9.50195 9.88281 9.78125C9.14518 10.0605 8.28581 10.2002 7.30469 10.2002H5.45703V11.7686H9.96875V13.5195H5.45703V17H3.2334V13.5195H0.730469ZM5.45703 8.41699H7.21875C8.24284 8.41699 9.05924 8.15202 9.66797 7.62207C10.2767 7.08496 10.5811 6.31868 10.5811 5.32324C10.5811 4.41374 10.2731 3.70833 9.65723 3.20703C9.0485 2.70573 8.23568 2.45508 7.21875 2.45508H5.45703V8.41699Z" fill="#1F2229"/>
</svg>
