<svg width="10" height="7" viewBox="0 0 10 7" fill="none" xmlns="http://www.w3.org/2000/svg">
<path d="M4.92589 6.31917L4.93154 6.408L4.91889 6.32026C4.75154 6.3444 4.57329 6.29307 4.43581 6.15559L0.668807 2.38859C0.444236 2.16402 0.443899 1.80761 0.666807 1.5847C0.890058 1.36145 1.24143 1.35749 1.47064 1.58664C1.47066 1.58666 1.47068 1.58668 1.4707 1.5867L4.49264 4.60964L4.84625 4.96337L5.19987 4.60964L8.22181 1.5867C8.44638 1.36213 8.80279 1.36179 9.0257 1.5847C9.24897 1.80797 9.25291 2.15938 9.0237 2.38859L5.2567 6.15559C5.16201 6.25028 5.04593 6.30384 4.92589 6.31917Z" fill="#1F2229" stroke="#1F2229"/>
</svg>
