<svg width="28" height="28" viewBox="0 0 28 28" fill="none" xmlns="http://www.w3.org/2000/svg">
<path d="M14 28C21.732 28 28 21.732 28 14C28 6.26801 21.732 0 14 0C6.26801 0 0 6.26801 0 14C0 21.732 6.26801 28 14 28Z" fill="white"/>
<path d="M17.0949 9.69813L15.9408 9.69864C15.0357 9.69864 14.8607 10.1287 14.8607 10.7597V12.1512H17.019L17.0179 14.3306H14.8609V19.9234H12.6098V14.3306H10.728V12.1512H12.6098V10.5439C12.6098 8.67869 13.7495 7.66284 15.4132 7.66284L17.0951 7.6654V9.69813H17.0949Z" fill="#1F2229"/>
</svg>
