<svg width="28" height="28" viewBox="0 0 28 28" fill="none" xmlns="http://www.w3.org/2000/svg">
<path d="M14 28C21.732 28 28 21.732 28 14C28 6.26801 21.732 0 14 0C6.26801 0 0 6.26801 0 14C0 21.732 6.26801 28 14 28Z" fill="#3B5998"/>
<path d="M17.0949 9.69812L15.9407 9.69863C15.0357 9.69863 14.8607 10.1287 14.8607 10.7597V12.1512H17.0189L17.0179 14.3306H14.8609V19.9234H12.6098V14.3306H10.728V12.1512H12.6098V10.5439C12.6098 8.67868 13.7494 7.66283 15.4132 7.66283L17.095 7.6654V9.69812H17.0949Z" fill="#FEFEFE"/>
</svg>
