<svg width="8" height="9" viewBox="0 0 8 9" fill="none" xmlns="http://www.w3.org/2000/svg">
<path d="M0.398438 7.10156V6.14648H1.76367V5.2793H0.398438V4.31836H1.76367V1.01953H0.755859V0H3.98438C4.42188 0 4.81641 0.0488281 5.16797 0.146484C5.51953 0.244141 5.80859 0.375 6.03516 0.539062C6.26562 0.703125 6.45703 0.898438 6.60938 1.125C6.76562 1.34766 6.87695 1.58008 6.94336 1.82227C7.00977 2.06445 7.04297 2.32031 7.04297 2.58984C7.04297 2.94141 6.98633 3.27344 6.87305 3.58594C6.75977 3.89844 6.58594 4.18555 6.35156 4.44727C6.11719 4.70508 5.79688 4.91016 5.39062 5.0625C4.98828 5.21484 4.51953 5.29102 3.98438 5.29102H2.97656V6.14648H5.4375V7.10156H2.97656V9H1.76367V7.10156H0.398438ZM2.97656 4.31836H3.9375C4.49609 4.31836 4.94141 4.17383 5.27344 3.88477C5.60547 3.5918 5.77148 3.17383 5.77148 2.63086C5.77148 2.13477 5.60352 1.75 5.26758 1.47656C4.93555 1.20312 4.49219 1.06641 3.9375 1.06641H2.97656V4.31836Z" fill="white"/>
</svg>
