<svg width="34" height="34" viewBox="0 0 34 34" fill="none" xmlns="http://www.w3.org/2000/svg">
<circle cx="17" cy="17" r="17" fill="#FF59A3"/>
<path d="M24.2608 22.9821C22.7308 22.9821 21.4298 22.5051 20.3208 21.5501C19.4798 20.8531 19.1728 20.5901 18.3698 19.8561C18.0258 19.5621 17.9868 19.1221 18.1788 18.7911C18.3698 18.4971 18.7528 18.3141 19.1728 18.4611C19.3258 18.4981 19.4788 18.6081 19.5938 18.7181C20.3968 19.4151 20.7028 19.6411 21.5068 20.3391C22.7308 21.4041 24.3758 21.6611 25.7908 21.0001C27.3588 20.2661 28.3538 18.7971 28.2768 17.2921C28.1618 14.9431 25.0638 12.4831 22.1568 14.2081C21.3918 14.6851 20.7038 15.3091 20.0148 15.8971C17.9488 17.7321 15.9218 19.5681 13.8568 21.4031C12.9008 22.2471 11.7908 22.7611 10.4908 22.9451C6.81882 23.4591 3.49082 20.2651 4.06482 16.7781C4.48582 14.0981 6.93382 12.0061 9.80182 12.0061C11.2558 12.0061 12.4728 12.5011 13.6648 13.4381C14.4128 14.0251 14.6738 14.2981 15.3688 14.9071C15.4838 15.0171 15.6368 15.1271 15.7128 15.2741C15.9038 15.6041 15.8278 16.0821 15.5218 16.3021C15.2158 16.5591 14.7188 16.5591 14.4128 16.2651C13.9538 15.8611 12.7698 14.7961 12.2118 14.3921C10.9118 13.4741 9.53382 13.2911 8.08082 14.0251C6.58882 14.7961 5.67082 15.9711 5.74782 17.6591C5.78582 19.9721 8.96082 22.5051 11.8678 20.7431C12.7088 20.2291 13.4358 19.5321 14.2008 18.8711C16.1518 17.1461 18.1408 15.3101 20.1678 13.5481C21.3538 12.5201 22.8068 11.9331 24.4518 12.0061C26.7088 12.1531 29.0418 13.6581 29.7688 16.0071C30.4578 18.2101 29.5778 20.5591 27.5508 21.9541C26.5178 22.6151 25.3708 22.9821 24.2618 22.9821H24.2608Z" fill="white"/>
</svg>
