<svg width="26" height="11" viewBox="0 0 26 11" fill="none" xmlns="http://www.w3.org/2000/svg">
<path d="M20.2608 10.9821C18.7308 10.9821 17.4298 10.5051 16.3208 9.55009C15.4798 8.85309 15.1728 8.59009 14.3698 7.85609C14.0258 7.56209 13.9868 7.12209 14.1788 6.79109C14.3698 6.49709 14.7528 6.31409 15.1728 6.46109C15.3258 6.49809 15.4788 6.60809 15.5938 6.71809C16.3968 7.41509 16.7028 7.64109 17.5068 8.33909C18.7308 9.40409 20.3758 9.66109 21.7908 9.00009C23.3588 8.26609 24.3538 6.79709 24.2768 5.29209C24.1618 2.94309 21.0638 0.483094 18.1568 2.20809C17.3918 2.68509 16.7038 3.30909 16.0148 3.89709C13.9488 5.73209 11.9218 7.56809 9.85682 9.40309C8.90082 10.2471 7.79082 10.7611 6.49082 10.9451C2.81882 11.4591 -0.50918 8.26509 0.0648205 4.77809C0.48582 2.09809 2.93382 0.00609324 5.80182 0.00609324C7.25582 0.00609324 8.47282 0.501093 9.66482 1.43809C10.4128 2.02509 10.6738 2.29809 11.3688 2.90709C11.4838 3.01709 11.6368 3.12709 11.7128 3.27409C11.9038 3.60409 11.8278 4.08209 11.5218 4.30209C11.2158 4.55909 10.7188 4.55909 10.4128 4.26509C9.95382 3.86109 8.76982 2.79609 8.21182 2.39209C6.91182 1.47409 5.53382 1.29109 4.08082 2.02509C2.58882 2.79609 1.67082 3.97109 1.74782 5.65909C1.78582 7.97209 4.96082 10.5051 7.86782 8.74309C8.70882 8.22909 9.43582 7.53209 10.2008 6.87109C12.1518 5.14609 14.1408 3.31009 16.1678 1.54809C17.3538 0.520094 18.8068 -0.0669068 20.4518 0.00609324C22.7088 0.153093 25.0418 1.65809 25.7688 4.00709C26.4578 6.21009 25.5778 8.55909 23.5508 9.95409C22.5178 10.6151 21.3708 10.9821 20.2618 10.9821H20.2608Z" fill="black"/>
</svg>
