<svg width="28" height="28" viewBox="0 0 28 28" fill="none" xmlns="http://www.w3.org/2000/svg">
<path d="M14 28C21.732 28 28 21.732 28 14C28 6.26801 21.732 0 14 0C6.26801 0 0 6.26801 0 14C0 21.732 6.26801 28 14 28Z" fill="#E1306C"/>
<path fill-rule="evenodd" clip-rule="evenodd" d="M13.9978 7.00442C15.8983 7.00442 16.1366 7.01247 16.883 7.04653C17.6278 7.0805 18.1365 7.19881 18.5816 7.37181C19.0418 7.55061 19.432 7.78989 19.8211 8.17892C20.2101 8.56797 20.4494 8.95822 20.6282 9.41839C20.8012 9.8635 20.9195 10.3722 20.9535 11.117C20.9875 11.8634 20.9956 12.1017 20.9956 14.0022C20.9956 15.9027 20.9875 16.141 20.9535 16.8874C20.9195 17.6322 20.8012 18.1409 20.6282 18.586C20.4494 19.0462 20.2101 19.4364 19.8211 19.8255C19.432 20.2145 19.0418 20.4538 18.5816 20.6326C18.1365 20.8056 17.6278 20.9239 16.883 20.9579C16.1366 20.9919 15.8983 21 13.9978 21C12.0973 21 11.859 20.9919 11.1126 20.9579C10.3678 20.9239 9.85908 20.8056 9.41397 20.6326C8.95381 20.4538 8.56356 20.2145 8.1745 19.8255C7.78547 19.4364 7.54619 19.0462 7.36739 18.586C7.19439 18.1409 7.07608 17.6322 7.04211 16.8874C7.00806 16.141 7 15.9027 7 14.0022C7 12.1017 7.00806 11.8634 7.04211 11.117C7.07608 10.3722 7.19439 9.8635 7.36739 9.41839C7.54619 8.95822 7.78547 8.56797 8.1745 8.17892C8.56356 7.78989 8.95381 7.55061 9.41397 7.37181C9.85908 7.19881 10.3678 7.0805 11.1126 7.04653C11.859 7.01247 12.0973 7.00442 13.9978 7.00442ZM13.9978 8.26528C12.1293 8.26528 11.908 8.27242 11.1701 8.30608C10.4878 8.3372 10.1173 8.4512 9.87069 8.54703C9.54406 8.67397 9.31094 8.82561 9.06608 9.0705C8.82119 9.31536 8.66956 9.54847 8.54261 9.87511C8.44678 10.1217 8.33278 10.4922 8.30167 11.1745C8.268 11.9124 8.26086 12.1337 8.26086 14.0022C8.26086 15.8707 8.268 16.092 8.30167 16.8299C8.33278 17.5122 8.44678 17.8827 8.54261 18.1293C8.66956 18.4559 8.82122 18.6891 9.06608 18.9339C9.31094 19.1788 9.54406 19.3304 9.87069 19.4574C10.1173 19.5532 10.4878 19.6672 11.1701 19.6983C11.9079 19.732 12.1292 19.7391 13.9978 19.7391C15.8664 19.7391 16.0877 19.732 16.8255 19.6983C17.5078 19.6672 17.8783 19.5532 18.1249 19.4574C18.4515 19.3304 18.6846 19.1788 18.9295 18.9339C19.1744 18.6891 19.326 18.4559 19.453 18.1293C19.5488 17.8827 19.6628 17.5122 19.6939 16.8299C19.7276 16.092 19.7347 15.8707 19.7347 14.0022C19.7347 12.1337 19.7276 11.9124 19.6939 11.1745C19.6628 10.4922 19.5488 10.1217 19.453 9.87511C19.326 9.54847 19.1744 9.31536 18.9295 9.0705C18.6846 8.82561 18.4515 8.67397 18.1249 8.54703C17.8783 8.4512 17.5078 8.3372 16.8255 8.30608C16.0876 8.27242 15.8663 8.26528 13.9978 8.26528ZM13.9978 10.4088C15.9824 10.4088 17.5912 12.0176 17.5912 14.0022C17.5912 15.9868 15.9824 17.5957 13.9978 17.5957C12.0132 17.5957 10.4043 15.9868 10.4043 14.0022C10.4043 12.0176 12.0132 10.4088 13.9978 10.4088ZM13.9978 16.3348C15.2861 16.3348 16.3304 15.2905 16.3304 14.0022C16.3304 12.7139 15.2861 11.6696 13.9978 11.6696C12.7095 11.6696 11.6652 12.7139 11.6652 14.0022C11.6652 15.2905 12.7095 16.3348 13.9978 16.3348ZM18.573 10.2668C18.573 10.7306 18.197 11.1065 17.7332 11.1065C17.2695 11.1065 16.8935 10.7306 16.8935 10.2668C16.8935 9.803 17.2695 9.42703 17.7332 9.42703C18.197 9.42703 18.573 9.803 18.573 10.2668Z" fill="white"/>
</svg>
