<svg width="88" height="33" viewBox="0 0 88 33" fill="none" xmlns="http://www.w3.org/2000/svg">
<mask id="mask0" mask-type="alpha" maskUnits="userSpaceOnUse" x="0" y="0" width="88" height="33">
<path d="M0 11.6207L12.9185 9.81492V14.9711L0 16.385V11.6207ZM4.12199 16.6746L8.85192 16.1944V32.9999H4.12199V16.6746ZM14.6629 9.57077L19.6465 8.87402V32.9998H14.6629V9.57077ZM20.5751 8.74393L27.7715 7.73802V13.346L20.5751 14.1333V8.74393ZM20.5751 18.1447L25.2994 17.7408V23.3766L20.5751 23.6333V18.1447ZM20.575 27.5882L27.7714 27.3724V32.9998H20.575V27.5882ZM46.3818 5.12756L52.9148 4.21399V33H46.3818V5.12756ZM54.1355 4.04339L63.6562 2.71226V9.41268L54.1355 10.4544V4.04339ZM54.1355 15.2766L60.3761 14.7445V21.4674L54.1355 21.8065V15.2766ZM54.1354 26.5792L63.6561 26.2936V32.9998H54.1354V26.5792ZM29.6754 7.47161L35.3521 6.67787V32.9999H29.6754V7.47161ZM36.4117 27.1129L44.6524 26.8655V32.9998H36.4117V27.1129ZM85.0011 2.39677C86.8886 4.17202 87.8407 6.68634 87.6132 9.29547C87.1826 14.2271 84.7769 18.1785 78.0791 24.6887L67.1173 25.0466C67.1173 25.0466 74.753 18.147 77.6249 14.7759C79.4857 12.5915 80.2739 10.2334 79.5096 8.66172C79.0253 7.66569 77.9378 7.16999 76.598 7.24411V0.133238C79.9095 -0.340223 82.9376 0.455982 85.0011 2.39677ZM88 32.9999H65.765V26.109L88 25.5588V32.9999ZM75.3197 0.292881L75.3237 7.53501C73.968 8.10329 72.6282 9.137 72.942 13.4951L66.0548 14.1029C65.6888 6.38889 68.8606 1.66076 75.3197 0.292881Z" fill="white"/>
</mask>
<g mask="url(#mask0)">
<path fill-rule="evenodd" clip-rule="evenodd" d="M0 0H88V33H0V0Z" fill="white"/>
</g>
</svg>
