<svg width="28" height="28" viewBox="0 0 28 28" fill="none" xmlns="http://www.w3.org/2000/svg">
<path d="M14 28C21.732 28 28 21.732 28 14C28 6.26801 21.732 0 14 0C6.26801 0 0 6.26801 0 14C0 21.732 6.26801 28 14 28Z" fill="#E2E2E2"/>
<path d="M19.25 11.9583C19.2491 12.11 19.2431 12.2615 19.2318 12.4128C19.0497 14.7054 17.5344 17.0598 16.1815 19.3082L13.7083 23.105V17.5C10.6477 17.5 8.16666 15.0189 8.16666 11.9583C8.16666 8.89776 10.6477 6.41667 13.7083 6.41667C16.7689 6.41667 19.25 8.89776 19.25 11.9583ZM13.7083 14.3333C15.02 14.3333 16.0833 13.27 16.0833 11.9583C16.0833 10.6467 15.02 9.58334 13.7083 9.58334C12.3966 9.58334 11.3333 10.6467 11.3333 11.9583C11.3333 13.27 12.3966 14.3333 13.7083 14.3333Z" fill="#FF3333"/>
</svg>
