<svg width="22" height="23" viewBox="0 0 22 23" fill="none" xmlns="http://www.w3.org/2000/svg">
<path d="M14.287 0.000976562C10.574 0.000976562 6.575 0.916977 6.575 2.92698V6.63098C2.832 7.21298 0 10.413 0 14.275C0 18.545 3.461 22.005 7.73 22.005C9.32 22.005 10.797 21.525 12.026 20.703C12.685 20.798 13.481 20.843 14.287 20.843C17.68 20.843 21.301 20.076 21.903 18.411C21.961 18.317 21.997 18.203 22 18.08V2.92898C22 0.918977 18.001 0.00297642 14.287 0.00297642L14.288 0.00197649L14.287 0.000976562ZM20.624 14.205C20.624 14.603 18.772 15.563 15.324 15.729C15.414 15.298 15.466 14.803 15.466 14.296C15.466 13.883 15.432 13.477 15.366 13.082C17.277 13.103 19.079 12.687 20.709 11.956L20.624 14.205V14.205ZM20.624 10.224C20.624 10.56 18.935 11.625 15.041 11.758C14.735 10.88 14.309 10.119 13.775 9.44998C13.954 9.46998 14.12 9.47798 14.287 9.47798C16.655 9.47798 19.134 9.10398 20.624 8.31298V10.224V10.224ZM20.624 6.55098C20.624 7.00098 18.404 8.10098 14.287 8.10098C13.599 8.10098 12.921 8.06798 12.267 8.00298H12.255C11.061 7.12898 9.573 6.58898 7.962 6.54398L7.952 4.68698C9.441 5.47798 11.92 5.85198 14.288 5.85198C16.656 5.85198 19.135 5.47798 20.625 4.68698V6.54998L20.624 6.55098V6.55098ZM14.287 1.37598C18.403 1.37598 20.624 2.47598 20.624 2.92498C20.624 3.37398 18.404 4.47498 14.287 4.47498C10.171 4.47498 7.951 3.37498 7.951 2.92498C7.951 2.47498 10.173 1.37598 14.287 1.37598ZM1.371 14.27C1.372 10.759 4.218 7.91298 7.73 7.91298C11.242 7.91298 14.088 10.76 14.088 14.271C14.088 17.782 11.242 20.629 7.731 20.629C4.22 20.626 1.374 17.78 1.371 14.269V14.27ZM14.285 19.464C14.01 19.464 13.74 19.452 13.469 19.442C14.065 18.785 14.551 18.015 14.894 17.171C14.96 17.12 15.016 17.12 15.072 17.12C17.077 17.12 18.985 16.699 20.71 15.941L20.62 17.913C20.624 18.363 18.402 19.463 14.286 19.463L14.285 19.464V19.464Z" fill="black"/>
</svg>
