<svg width="28" height="28" viewBox="0 0 28 28" fill="none" xmlns="http://www.w3.org/2000/svg">
<path d="M14 28C21.732 28 28 21.732 28 14C28 6.26801 21.732 0 14 0C6.26801 0 0 6.26801 0 14C0 21.732 6.26801 28 14 28Z" fill="black"/>
<path d="M20.3935 7.62109L5.28763 13.76L11.8979 16.1205L14.2584 22.7269L20.3935 7.62109Z" fill="url(#paint0_linear)"/>
<path d="M20.3935 7.62109L11.6622 16.3562L14.2584 22.7269L20.3935 7.62109Z" fill="#FFCC00"/>
<path d="M11.4265 16.5919L14.2584 22.7269L13.3119 14.7027L5.28763 13.76L11.4265 16.5919Z" fill="#ECA704"/>
<defs>
<linearGradient id="paint0_linear" x1="5.28769" y1="22.7267" x2="20.3942" y2="7.62017" gradientUnits="userSpaceOnUse">
<stop stop-color="#FFCC00"/>
<stop offset="1" stop-color="#FFE992"/>
</linearGradient>
</defs>
</svg>
