<svg width="32" height="32" viewBox="0 0 32 32" fill="none" xmlns="http://www.w3.org/2000/svg">
<path d="M16 32C24.8366 32 32 24.8366 32 16C32 7.16344 24.8366 0 16 0C7.16344 0 0 7.16344 0 16C0 24.8366 7.16344 32 16 32Z" fill="#ED812B"/>
<path d="M15.5439 8.88838C17.5343 8.89382 19.1319 10.5219 19.1217 12.5343C19.1116 14.5003 17.4879 16.0937 15.5008 16.087C13.534 16.0803 11.9209 14.4497 11.9327 12.4797C11.9437 10.4883 13.5576 8.88294 15.5439 8.88838ZM19.5754 17.5012C19.1352 17.953 18.6054 18.28 18.0171 18.5081C17.4609 18.7237 16.8515 18.8322 16.2481 18.9046C16.3394 19.0037 16.3823 19.0524 16.4392 19.1093C17.2579 19.9324 18.0806 20.7514 18.8967 21.5768C19.1748 21.8582 19.2327 22.207 19.0796 22.5338C18.9126 22.8913 18.5377 23.1263 18.1699 23.101C17.937 23.0849 17.7553 22.9693 17.5941 22.8068C16.9761 22.185 16.3463 21.5743 15.7413 20.9408C15.5646 20.7564 15.4801 20.7915 15.3243 20.9517C14.7028 21.5919 14.0709 22.2218 13.4355 22.8484C13.1501 23.1299 12.8106 23.1809 12.4794 23.0199C12.1275 22.8497 11.9038 22.4903 11.9209 22.1288C11.9331 21.885 12.0531 21.6981 12.2208 21.5312C13.0314 20.7223 13.8395 19.9109 14.6478 19.1001C14.7015 19.0463 14.7513 18.9892 14.8292 18.9056C13.7268 18.7904 12.7326 18.519 11.8814 17.8535C11.7756 17.7707 11.6667 17.6909 11.5705 17.598C11.1977 17.2403 11.1603 16.8303 11.4549 16.4084C11.7073 16.0471 12.1304 15.9505 12.5706 16.1581C12.6559 16.198 12.737 16.2486 12.8148 16.3021C14.4008 17.3921 16.5799 17.422 18.1722 16.3509C18.3299 16.2304 18.4986 16.1313 18.6941 16.0814C19.0738 15.9835 19.4284 16.1234 19.632 16.4558C19.8651 16.8357 19.8624 17.2062 19.5754 17.5012ZM15.5292 10.9129C14.604 10.9129 13.854 11.6629 13.854 12.5881C13.854 13.5133 14.604 14.2634 15.5292 14.2634C16.4545 14.2634 17.2045 13.5133 17.2045 12.5881C17.2045 11.6629 16.4545 10.9129 15.5292 10.9129Z" fill="#FEFEFE"/>
</svg>
