<svg width="28" height="28" viewBox="0 0 28 28" fill="none" xmlns="http://www.w3.org/2000/svg">
<path d="M14 28C21.732 28 28 21.732 28 14C28 6.26801 21.732 0 14 0C6.26801 0 0 6.26801 0 14C0 21.732 6.26801 28 14 28Z" fill="white"/>
<path d="M13.6009 7.77784C15.3426 7.7826 16.7405 9.20719 16.7315 10.968C16.7227 12.6883 15.302 14.0825 13.5633 14.0766C11.8423 14.0708 10.4309 12.644 10.4411 10.9203C10.4508 9.17774 11.863 7.77309 13.6009 7.77784ZM17.1285 15.3141C16.7434 15.7094 16.2798 15.9955 15.765 16.1951C15.2784 16.3838 14.7451 16.4787 14.2171 16.542C14.297 16.6287 14.3346 16.6713 14.3843 16.7211C15.1007 17.4414 15.8206 18.158 16.5346 18.8802C16.778 19.1265 16.8286 19.4316 16.6947 19.7176C16.5485 20.0304 16.2205 20.236 15.8987 20.2139C15.6949 20.1998 15.5359 20.0986 15.3949 19.9565C14.8541 19.4124 14.3031 18.878 13.7736 18.3237C13.6191 18.1623 13.5451 18.1931 13.4088 18.3332C12.865 18.8934 12.3121 19.4446 11.7561 19.9929C11.5064 20.2391 11.2093 20.2838 10.9195 20.1429C10.6116 19.994 10.4159 19.6795 10.4309 19.3632C10.4415 19.1499 10.5465 18.9863 10.6932 18.8403C11.4025 18.1325 12.1096 17.4225 12.8168 16.7131C12.8639 16.666 12.9074 16.6161 12.9756 16.5429C12.011 16.4421 11.1411 16.2047 10.3963 15.6223C10.3037 15.5499 10.2084 15.48 10.1243 15.3988C9.79806 15.0858 9.76532 14.727 10.0231 14.3578C10.2439 14.0417 10.6142 13.9572 10.9993 14.1388C11.0739 14.1738 11.1449 14.2181 11.213 14.2649C12.6008 15.2186 14.5074 15.2447 15.9007 14.3075C16.0387 14.2021 16.1863 14.1154 16.3574 14.0717C16.6896 13.9861 16.9999 14.1085 17.1781 14.3994C17.382 14.7318 17.3797 15.0559 17.1285 15.3141ZM13.5881 9.54926C12.7785 9.54926 12.1223 10.2056 12.1223 11.0151C12.1223 11.8247 12.7785 12.481 13.5881 12.481C14.3977 12.481 15.054 11.8247 15.054 11.0151C15.054 10.2056 14.3977 9.54926 13.5881 9.54926Z" fill="#1F2229"/>
</svg>
