<svg width="19" height="25" viewBox="0 0 19 25" fill="none" xmlns="http://www.w3.org/2000/svg">
<path d="M18.5249 20.2409L15.4869 17.0449C15.1879 16.7319 14.7689 16.5379 14.3039 16.5379C13.8699 16.5379 13.4739 16.7079 13.1799 16.9859L12.5019 17.6319C12.3309 17.7969 12.0999 17.8979 11.8449 17.8979C11.7569 17.8979 11.6719 17.8859 11.5919 17.8639C9.72586 17.2979 8.16386 16.1639 7.06686 14.6629L6.42586 13.6089C5.62386 12.3849 5.14686 10.8839 5.14686 9.26988C5.14686 9.09188 5.15286 8.91588 5.16386 8.74188C5.20286 8.21888 5.53686 7.75888 6.00286 7.54388L6.51986 7.31488C7.13286 7.02988 7.54986 6.41488 7.54986 5.70188C7.54986 5.44188 7.49386 5.19488 7.39486 4.97288L5.61986 0.990883C5.42586 0.569883 5.07786 0.248883 4.65086 0.0988832C4.48286 0.0378832 4.30186 0.00488281 4.11386 0.00488281C3.84686 0.00488281 3.59386 0.0718832 3.37286 0.189883C2.81586 0.431883 2.33286 0.763883 1.92386 1.17188C0.267857 3.06688 -1.81314 10.2639 2.86186 16.8529C3.77886 18.1459 8.27786 24.0059 14.4629 24.0059H14.4729C15.2469 24.0059 15.9999 23.9149 16.7219 23.7439C17.3219 23.5609 17.8949 23.2239 18.3669 22.7769C18.7539 22.4609 19.0009 21.9779 19.0009 21.4379C19.0009 20.9739 18.8199 20.5539 18.5249 20.2439L18.5259 20.2429L18.5249 20.2409ZM17.3699 21.6399C17.0809 21.9189 16.7329 22.1369 16.3469 22.2729C15.2099 22.5269 9.36986 23.4149 4.09086 15.9769C-0.312143 9.76488 2.03386 3.34188 3.05686 2.16888C3.33886 1.91388 3.66586 1.70188 4.02286 1.54588C4.06686 1.52988 4.08986 1.52388 4.11386 1.52188C4.11786 1.52188 4.12086 1.52088 4.12386 1.52088C4.13686 1.52088 4.14986 1.52388 4.16186 1.52888C4.19986 1.54088 4.22986 1.56788 4.24686 1.60288L6.02586 5.59688C6.03986 5.62788 6.04786 5.66288 6.04786 5.70088C6.04786 5.80188 5.98786 5.88888 5.90186 5.92688L5.39086 6.16088C4.41986 6.60588 3.73886 7.54288 3.65986 8.64888C3.64686 8.83888 3.63986 9.04988 3.63986 9.26188C3.63986 11.1739 4.20286 12.9539 5.17086 14.4399L5.79686 15.4719C7.11086 17.2859 8.95786 18.6359 11.1029 19.2959C11.3779 19.3749 11.6099 19.4109 11.8499 19.4109C12.5059 19.4109 13.1029 19.1509 13.5439 18.7279L14.2219 18.0819C14.2439 18.0619 14.2749 18.0489 14.3069 18.0489C14.3429 18.0489 14.3769 18.0649 14.3999 18.0889L17.4379 21.2849C17.4749 21.3239 17.4969 21.3759 17.4969 21.4349C17.4969 21.4399 17.4969 21.4459 17.4959 21.4509C17.4829 21.5309 17.4349 21.5989 17.3679 21.6379L17.3699 21.6399Z" fill="black"/>
</svg>
