<svg width="28" height="28" viewBox="0 0 28 28" fill="none" xmlns="http://www.w3.org/2000/svg">
<path d="M14 28C21.732 28 28 21.732 28 14C28 6.26801 21.732 0 14 0C6.26801 0 0 6.26801 0 14C0 21.732 6.26801 28 14 28Z" fill="#506CFB"/>
<path fill-rule="evenodd" clip-rule="evenodd" d="M13.7407 20.5756C13.3619 20.5756 12.9903 20.5441 12.6284 20.4836C11.9874 20.9276 11.1536 21.4887 10.1271 22.1667C10.1271 21.3342 10.1271 20.4516 10.1271 19.5188C8.24722 18.3144 7 16.1977 7 13.7878C7 10.039 10.0179 7 13.7407 7C17.4635 7 20.4815 10.039 20.4815 13.7878C20.4815 17.5366 17.4635 20.5756 13.7407 20.5756ZM13.7407 17.581C15.4927 17.581 16.9129 16.1508 16.9129 14.3867C16.9129 14.4072 10.5686 14.3864 10.5686 14.3867C10.5686 16.1508 11.9888 17.581 13.7407 17.581Z" fill="white"/>
</svg>
