<svg width="28" height="28" viewBox="0 0 28 28" fill="none" xmlns="http://www.w3.org/2000/svg">
<mask id="mask0" mask-type="alpha" maskUnits="userSpaceOnUse" x="0" y="0" width="28" height="28">
<path d="M28 14C28 6.26801 21.732 0 14 0C6.26801 0 0 6.26801 0 14C0 21.732 6.26801 28 14 28C21.732 28 28 21.732 28 14Z" fill="white"/>
</mask>
<g mask="url(#mask0)">
<path d="M28 14C28 6.26801 21.732 0 14 0C6.26801 0 0 6.26801 0 14C0 21.732 6.26801 28 14 28C21.732 28 28 21.732 28 14Z" fill="black"/>
<path d="M0.0121002 6.86573L0.672196 6.79793L0.817977 8.13125L0.0121002 8.21487V6.86573ZM2.53703 6.60584L3.32191 13.7911L1.77547 13.9493L0.990582 6.76517L2.53703 6.60584ZM2.85425 6.57421L4.61295 6.39342L4.75873 7.72787L3.00003 7.90527L2.85425 6.57421Z" fill="white"/>
<path fill-rule="evenodd" clip-rule="evenodd" d="M3.04821 11.2854L3.32191 13.7911L1.77547 13.9493L1.40118 10.5234L3.04821 11.2854Z" fill="#CC1277"/>
<path d="M7.6752 13.2128L6.13496 13.3681L5.35207 6.3222L6.89463 6.16587L7.6752 13.2128ZM7.21057 6.13039L10.3654 5.81219L10.5106 7.12047L7.35925 7.44754L7.21057 6.13039ZM7.5242 8.95095L10.5094 8.64827L10.65 9.93105L7.66358 10.2326L7.5242 8.95095ZM7.84827 11.8713L11.1402 11.5387L11.2854 12.847L7.99347 13.1796L7.84827 11.8713Z" fill="white"/>
<path fill-rule="evenodd" clip-rule="evenodd" d="M7.29652 13.251L6.13495 13.3681L6.05829 12.6781L7.29652 13.251Z" fill="#CC1277"/>
<path d="M14.139 12.6241L12.6404 12.7868L11.8787 5.39492L13.3773 5.23099L14.139 12.6241ZM14.3051 11.2173L17.0774 10.915L17.2186 12.2881L14.4464 12.5904L14.3051 11.2173Z" fill="white"/>
<path d="M19.5413 12.0493L18.0002 12.2056L17.2186 5.15645L18.7586 5.00012L19.5413 12.0493ZM19.0768 4.96796L22.231 4.64977L22.3761 5.95804L19.2219 6.27735L19.0768 4.96796ZM19.3903 7.78852L22.375 7.48584L22.5167 8.7653L19.532 9.06686L19.3903 7.78852ZM19.7143 10.7089L23.0056 10.3763L23.1519 11.6834L19.8607 12.016L19.7143 10.7089Z" fill="white"/>
<path d="M25.3706 5.30408C24.8192 5.4569 24.4532 6.00309 24.5039 6.59756C24.5294 6.84043 24.5805 7.16241 24.5912 7.26602L23.2208 7.25154L23.1633 6.68557C23.0568 5.67285 23.6957 4.32367 25.2493 4.10085L25.3706 5.30408ZM23.5317 10.371L25.3419 8.58846C26.5601 7.38857 26.7389 7.02092 26.6665 6.31235C26.6218 5.86671 26.2321 5.30965 25.6624 5.27846L25.54 4.07411C26.7113 4.00726 27.5354 4.5476 27.8985 5.41104V7.40528C27.6451 7.98685 27.1915 8.4804 26.7272 8.94052L24.0503 11.5809L23.6541 11.6244L23.5317 10.371ZM27.8975 11.1509L24.5337 11.5241L25.9936 10.0925L27.8975 9.88528V11.1509Z" fill="white"/>
<path d="M4.33369 14.8247L5.32293 24.773L3.37466 24.9925L2.38542 15.0453L4.33369 14.8247ZM4.73392 14.7798L6.94865 14.5305L7.13205 16.377L4.91731 16.6275L4.73392 14.7798ZM-0.284561 15.3611L1.93017 15.1117L2.11356 16.9582L-0.101169 17.2087L-0.284561 15.3611Z" fill="#CC1277"/>
<path d="M11.8885 24.4112L7.72537 14.8263L9.84839 14.5973L14.0253 24.1811L11.8885 24.4112ZM12.7916 20.1752L13.9804 14.1657L16.032 13.9493L14.1831 23.366L12.7916 20.1752Z" fill="#CC1277"/>
<path fill-rule="evenodd" clip-rule="evenodd" d="M13.5857 16.1608L13.9804 14.1657L16.032 13.9493L15.4302 17.0142L13.5857 16.1608Z" fill="white"/>
</g>
</svg>
