<svg width="21" height="24" viewBox="0 0 21 24" fill="none" xmlns="http://www.w3.org/2000/svg">
<path d="M18.8526 9.22026L17.7553 12.813C17.3641 14.0937 16.1917 14.9672 14.8638 14.9672H6.20282C4.87495 14.9672 3.70252 14.0937 3.31136 12.813L2.14613 8.99902V17.4829C2.14613 18.0126 2.57125 18.4416 3.09622 18.4416H17.9035C18.4285 18.4416 18.8536 18.0126 18.8536 17.4829V9.2213L18.8526 9.22026ZM2.61037 5.14764L4.80907 12.3477C4.99744 12.9647 5.56256 13.3853 6.20282 13.3853H14.8638C15.5041 13.3853 16.0692 12.9647 16.2576 12.3477L18.4563 5.14764H2.60934H2.61037ZM0.747235 3.59068V3.56471H0.754441C1.32162 1.50919 3.1899 0 5.40816 0H15.5905C17.8088 0 19.6771 1.50815 20.2443 3.56471H20.2515V3.59068C20.3616 3.99991 20.4213 4.42992 20.4213 4.87447V17.4818C20.4213 18.8851 19.2942 20.0224 17.9035 20.0224H17.6513L20.7178 22.6004C21.0502 22.8798 21.0955 23.3783 20.8186 23.7149C20.5417 24.0514 20.0477 24.0961 19.7141 23.8167L18.4871 22.7479H2.57743L1.28662 23.8167C0.954136 24.0961 0.460045 24.0514 0.182119 23.7149C-0.0958069 23.3783 -0.0505156 22.8808 0.282996 22.6004L3.34945 20.0224H3.09725C1.70659 20.0224 0.57945 18.8851 0.57945 17.4818V4.87447C0.57945 4.42992 0.638123 3.99991 0.749294 3.59068H0.747235ZM18.5849 3.56575C18.0836 2.39932 16.9318 1.58293 15.5905 1.58293H5.40816C4.06794 1.58293 2.91609 2.39829 2.41376 3.56575H18.5839H18.5849ZM17.3929 21.3249L15.4917 19.7264C15.4753 19.7118 15.4598 19.6973 15.4454 19.6807L15.2889 19.6069H5.70873L5.55227 19.6807C5.53889 19.6973 5.52345 19.7129 5.50595 19.7264L3.60473 21.3249H17.3929V21.3249ZM4.52085 17.2128C4.08749 17.2128 3.73648 16.8586 3.73648 16.4213C3.73648 15.9841 4.08749 15.6299 4.52085 15.6299H6.76279C7.19615 15.6299 7.54716 15.9841 7.54716 16.4213C7.54716 16.8586 7.19615 17.2128 6.76279 17.2128H4.52085ZM14.2359 17.2128C13.8026 17.2128 13.4515 16.8586 13.4515 16.4213C13.4515 15.9841 13.8026 15.6299 14.2359 15.6299H16.4778C16.9112 15.6299 17.2622 15.9841 17.2622 16.4213C17.2622 16.8586 16.9112 17.2128 16.4778 17.2128H14.2359Z" fill="black"/>
</svg>
