<svg width="28" height="28" viewBox="0 0 28 28" fill="none" xmlns="http://www.w3.org/2000/svg">
<path d="M14 28C21.732 28 28 21.732 28 14C28 6.26801 21.732 0 14 0C6.26801 0 0 6.26801 0 14C0 21.732 6.26801 28 14 28Z" fill="#6441A4"/>
<path fill-rule="evenodd" clip-rule="evenodd" d="M8.44219 7.5L7.5 9.90298V19.7239H10.85V21.5H12.7344L14.5141 19.7239H17.2359L20.9 16.0672V7.5H8.44219ZM19.6437 15.4403L17.55 17.5299H14.2L12.4203 19.306V17.5299H9.59375V8.75373H19.6437V15.4403ZM17.55 11.1567V14.8134H16.2937V11.1567H17.55ZM14.2 11.1567V14.8134H12.9437V11.1567H14.2Z" fill="white"/>
</svg>
