<svg width="28" height="28" viewBox="0 0 28 28" fill="none" xmlns="http://www.w3.org/2000/svg">
<path d="M14 28C21.732 28 28 21.732 28 14C28 6.26801 21.732 0 14 0C6.26801 0 0 6.26801 0 14C0 21.732 6.26801 28 14 28Z" fill="#59267C"/>
<path d="M19.9346 10.8951L19.9309 10.8803C19.6319 9.67159 18.2839 8.37458 17.046 8.10474L17.0321 8.10187C15.0299 7.71991 12.9998 7.71991 10.998 8.10187L10.9836 8.10474C9.74613 8.37458 8.39819 9.67159 8.09878 10.8803L8.0955 10.8951C7.72586 12.5831 7.72586 14.2949 8.0955 15.9829L8.09878 15.9977C8.38541 17.1549 9.63298 18.3923 10.8246 18.7326V20.0818C10.8246 20.5702 11.4198 20.81 11.7582 20.4576L13.1252 19.0366C13.4217 19.0532 13.7184 19.0625 14.015 19.0625C15.0229 19.0625 16.0312 18.9672 17.0321 18.7762L17.046 18.7733C18.2839 18.5035 19.6319 17.2065 19.9309 15.9978L19.9346 15.983C20.3042 14.2949 20.3042 12.5831 19.9346 10.8951ZM18.8528 15.7382C18.6531 16.5267 17.6297 17.5071 16.8165 17.6882C15.7519 17.8906 14.6789 17.9772 13.6069 17.9475C13.5856 17.9469 13.5651 17.9552 13.5502 17.9704C13.3981 18.1266 12.5521 18.9951 12.5521 18.9951L11.4904 20.0847C11.4128 20.1656 11.2764 20.1106 11.2764 19.9988V17.7637C11.2764 17.7268 11.2501 17.6954 11.2138 17.6883C11.2136 17.6882 11.2134 17.6882 11.2132 17.6882C10.4 17.507 9.3769 16.5267 9.17689 15.7381C8.84422 14.2123 8.84422 12.6656 9.17689 11.1398C9.3769 10.3513 10.4 9.37091 11.2132 9.18979C13.0725 8.83617 14.9576 8.83617 16.8165 9.18979C17.6301 9.37091 18.6531 10.3513 18.8528 11.1398C19.1858 12.6657 19.1858 14.2124 18.8528 15.7382Z" fill="white"/>
<path d="M15.784 16.7699C15.659 16.7319 15.5398 16.7064 15.4292 16.6605C14.2827 16.1848 13.2275 15.5712 12.3916 14.6304C11.9163 14.0955 11.5443 13.4915 11.2298 12.8524C11.0807 12.5493 10.955 12.2343 10.8269 11.9214C10.7101 11.6361 10.8822 11.3412 11.0633 11.1262C11.2333 10.9245 11.4521 10.77 11.689 10.6562C11.8739 10.5674 12.0563 10.6186 12.1913 10.7753C12.4832 11.1142 12.7514 11.4703 12.9685 11.8631C13.102 12.1047 13.0654 12.4 12.8234 12.5644C12.7646 12.6043 12.711 12.6512 12.6562 12.6964C12.6082 12.7359 12.5629 12.7759 12.53 12.8294C12.4698 12.9274 12.4669 13.043 12.5057 13.1496C12.8041 13.9697 13.3071 14.6074 14.1325 14.9508C14.2646 15.0058 14.3973 15.0698 14.5495 15.052C14.8043 15.0223 14.8868 14.7427 15.0654 14.5967C15.2399 14.454 15.463 14.4521 15.651 14.5711C15.8391 14.6901 16.0214 14.8178 16.2026 14.947C16.3805 15.0737 16.5576 15.1977 16.7216 15.3422C16.8794 15.4811 16.9337 15.6634 16.8449 15.852C16.6823 16.1973 16.4456 16.4846 16.1042 16.668C16.0078 16.7197 15.8927 16.7364 15.784 16.7699C15.659 16.7319 15.8927 16.7364 15.784 16.7699Z" fill="white"/>
<path d="M14.0181 10.2614C15.5178 10.3034 16.7496 11.2986 17.0136 12.7813C17.0585 13.0339 17.0746 13.2922 17.0946 13.5486C17.103 13.6565 17.0419 13.759 16.9255 13.7603C16.8053 13.7618 16.7512 13.6612 16.7434 13.5534C16.728 13.34 16.7172 13.1256 16.6878 12.914C16.5326 11.7968 15.6418 10.8726 14.5298 10.6743C14.3624 10.6444 14.1912 10.6365 14.0217 10.6188C13.9145 10.6075 13.7742 10.601 13.7505 10.4678C13.7305 10.3562 13.8248 10.2672 13.9311 10.2615C13.96 10.2599 13.9891 10.2612 14.0181 10.2614C15.5178 10.3034 13.9891 10.2612 14.0181 10.2614Z" fill="white"/>
<path d="M16.2972 13.2158C16.2948 13.2346 16.2935 13.2786 16.2825 13.3201C16.2427 13.4706 16.0144 13.4895 15.9619 13.3375C15.9463 13.2924 15.944 13.2411 15.9439 13.1926C15.9433 12.875 15.8743 12.5576 15.7141 12.2813C15.5495 11.9972 15.2979 11.7584 15.0029 11.614C14.8244 11.5266 14.6315 11.4723 14.436 11.4399C14.3505 11.4258 14.2641 11.4172 14.1782 11.4053C14.0742 11.3908 14.0186 11.3245 14.0235 11.2219C14.0281 11.1258 14.0984 11.0567 14.2031 11.0626C14.5473 11.0822 14.8797 11.1566 15.1857 11.3186C15.8079 11.6481 16.1633 12.1682 16.2671 12.8627C16.2717 12.8942 16.2793 12.9253 16.2817 12.9569C16.2876 13.0349 16.2912 13.113 16.2972 13.2158C16.2948 13.2346 16.2912 13.113 16.2972 13.2158Z" fill="white"/>
<path d="M15.3644 13.1795C15.239 13.1818 15.1718 13.1123 15.1589 12.9973C15.1499 12.9171 15.1428 12.8358 15.1236 12.7578C15.0859 12.6041 15.0042 12.4617 14.875 12.3675C14.8139 12.323 14.7448 12.2906 14.6723 12.2697C14.5803 12.2431 14.4847 12.2504 14.3929 12.2279C14.2931 12.2035 14.238 12.1227 14.2537 12.0292C14.2679 11.944 14.3508 11.8776 14.4438 11.8843C15.0252 11.9263 15.4408 12.2269 15.5001 12.9114C15.5043 12.9597 15.5092 13.0107 15.4985 13.0569C15.4801 13.136 15.4216 13.1757 15.3644 13.1795C15.239 13.1818 15.4216 13.1757 15.3644 13.1795Z" fill="white"/>
</svg>
