<svg width="28" height="28" viewBox="0 0 28 28" fill="none" xmlns="http://www.w3.org/2000/svg">
<path d="M14 28C21.732 28 28 21.732 28 14C28 6.26801 21.732 0 14 0C6.26801 0 0 6.26801 0 14C0 21.732 6.26801 28 14 28Z" fill="#45668E"/>
<path d="M17.7036 15.1392C18.1099 15.536 18.5397 15.9094 18.9044 16.3473C19.066 16.5409 19.2183 16.7412 19.3342 16.9665C19.4997 17.2876 19.3502 17.6399 19.0627 17.6589L17.277 17.6586C16.8158 17.6968 16.4488 17.5107 16.1394 17.1954C15.8924 16.9442 15.6632 16.6758 15.4253 16.4159C15.3281 16.3093 15.2258 16.2089 15.1038 16.1299C14.8604 15.9715 14.6488 16.02 14.5094 16.2743C14.3672 16.5331 14.3348 16.8199 14.3212 17.1079C14.3018 17.5289 14.1748 17.639 13.7523 17.6588C12.8496 17.701 11.993 17.5641 11.1969 17.1089C10.4946 16.7075 9.95103 16.1409 9.47736 15.4994C8.55499 14.2489 7.84859 12.8764 7.21388 11.4645C7.07103 11.1465 7.17553 10.9764 7.52633 10.9698C8.10914 10.9586 8.69195 10.96 9.27477 10.9693C9.51196 10.973 9.6689 11.1087 9.76003 11.3325C10.075 12.1074 10.4611 12.8447 10.9449 13.5284C11.0739 13.7105 11.2055 13.8921 11.3929 14.0206C11.5998 14.1626 11.7574 14.1157 11.855 13.8848C11.9174 13.738 11.9443 13.581 11.9579 13.4237C12.0042 12.885 12.0098 12.3464 11.9295 11.8098C11.8796 11.474 11.6907 11.2571 11.356 11.1936C11.1855 11.1613 11.2105 11.0982 11.2934 11.0008C11.4373 10.8325 11.5721 10.7283 11.8416 10.7283L13.8592 10.728C14.1771 10.7904 14.2485 10.9331 14.2916 11.2534L14.2934 13.4954C14.2897 13.6194 14.3557 13.9868 14.5782 14.0679C14.7566 14.1268 14.8743 13.9837 14.9809 13.8708C15.4647 13.3574 15.8095 12.7514 16.1182 12.1242C16.2544 11.8476 16.372 11.5613 16.4861 11.2746C16.571 11.0625 16.703 10.9582 16.9423 10.9618L18.8851 10.9641C18.9424 10.9641 19.0005 10.9646 19.0572 10.9744C19.3846 11.0304 19.4744 11.1713 19.3731 11.4907C19.2136 11.9926 18.9038 12.4106 18.601 12.8297C18.2764 13.2784 17.9303 13.7114 17.6089 14.1621C17.3136 14.574 17.337 14.7814 17.7036 15.1392Z" fill="#FEFEFE"/>
</svg>
