<svg width="28" height="28" viewBox="0 0 28 28" fill="none" xmlns="http://www.w3.org/2000/svg">
<path d="M14 28C21.732 28 28 21.732 28 14C28 6.26801 21.732 0 14 0C6.26801 0 0 6.26801 0 14C0 21.732 6.26801 28 14 28Z" fill="white"/>
<path d="M17.7035 15.1393C18.1098 15.5361 18.5396 15.9095 18.9043 16.3473C19.0658 16.541 19.2181 16.7413 19.3341 16.9665C19.4996 17.2877 19.3501 17.6399 19.0626 17.659L17.2769 17.6587C16.8157 17.6968 16.4487 17.5108 16.1393 17.1955C15.8923 16.9442 15.6631 16.6758 15.4252 16.416C15.328 16.3093 15.2256 16.2089 15.1037 16.1299C14.8602 15.9716 14.6487 16.0201 14.5093 16.2744C14.3671 16.5332 14.3347 16.8199 14.3211 17.1079C14.3017 17.529 14.1747 17.639 13.7522 17.6588C12.8495 17.7011 11.9929 17.5641 11.1968 17.109C10.4945 16.7076 9.95091 16.141 9.47724 15.4995C8.55487 14.249 7.84846 12.8765 7.21375 11.4646C7.0709 11.1466 7.17541 10.9765 7.5262 10.9699C8.10902 10.9586 8.69183 10.96 9.27464 10.9693C9.51184 10.9731 9.66877 11.1088 9.7599 11.3326C10.0749 12.1075 10.461 12.8447 10.9448 13.5285C11.0737 13.7106 11.2053 13.8921 11.3928 14.0207C11.5997 14.1627 11.7573 14.1158 11.8549 13.8848C11.9173 13.738 11.9442 13.5811 11.9578 13.4238C12.0041 12.885 12.0097 12.3465 11.9294 11.8098C11.8795 11.474 11.6906 11.2572 11.3559 11.1937C11.1854 11.1614 11.2103 11.0983 11.2933 11.0009C11.4372 10.8325 11.572 10.7284 11.8415 10.7284L13.859 10.728C14.177 10.7904 14.2483 10.9331 14.2915 11.2534L14.2933 13.4955C14.2895 13.6194 14.3555 13.9868 14.5781 14.068C14.7564 14.1268 14.8741 13.9838 14.9808 13.8709C15.4646 13.3575 15.8094 12.7515 16.1181 12.1242C16.2543 11.8476 16.3718 11.5614 16.486 11.2746C16.5709 11.0626 16.7028 10.9583 16.9422 10.9618L18.885 10.9641C18.9422 10.9641 19.0004 10.9647 19.0571 10.9745C19.3845 11.0305 19.4742 11.1714 19.3729 11.4908C19.2135 11.9926 18.9037 12.4107 18.6009 12.8298C18.2763 13.2785 17.9302 13.7115 17.6088 14.1621C17.3135 14.5741 17.3368 14.7815 17.7035 15.1393Z" fill="#1F2229"/>
</svg>
