<svg width="28" height="28" viewBox="0 0 28 28" fill="none" xmlns="http://www.w3.org/2000/svg">
<path d="M14 28C21.732 28 28 21.732 28 14C28 6.26801 21.732 0 14 0C6.26801 0 0 6.26801 0 14C0 21.732 6.26801 28 14 28Z" fill="#1CD86D"/>
<path d="M21 13.8197C21 17.5862 17.9233 20.6394 14.1272 20.6394C12.9222 20.6394 11.79 20.3314 10.805 19.7909L7 21L8.24056 17.341C7.61476 16.3134 7.25433 15.1082 7.25433 13.8197C7.25433 10.0532 10.3314 7 14.1272 7C17.9236 7 21 10.0532 21 13.8197ZM14.1272 8.08609C10.9408 8.08609 8.34898 10.6582 8.34898 13.8197C8.34898 15.0743 8.75793 16.2361 9.44969 17.1813L8.72776 19.3107L10.9483 18.6049C11.8606 19.204 12.9536 19.5533 14.1274 19.5533C17.3133 19.5533 19.9057 16.9815 19.9057 13.82C19.9057 10.6585 17.3135 8.08609 14.1272 8.08609ZM17.5978 15.3904C17.5554 15.3208 17.4432 15.2788 17.2749 15.1953C17.1063 15.1118 16.2778 14.7072 16.1238 14.6516C15.9693 14.5959 15.8567 14.5679 15.7446 14.7352C15.6324 14.9025 15.3095 15.2788 15.211 15.3904C15.1127 15.5022 15.0145 15.5162 14.8459 15.4325C14.6776 15.349 14.1349 15.1723 13.4913 14.6029C12.9906 14.1599 12.6524 13.613 12.5541 13.4454C12.456 13.2782 12.5438 13.1878 12.628 13.1046C12.7039 13.0296 12.7966 12.9094 12.8808 12.8119C12.9652 12.7142 12.9932 12.6446 13.0491 12.533C13.1056 12.4214 13.0774 12.3239 13.0351 12.24C12.9931 12.1565 12.6558 11.3339 12.5155 10.9992C12.3752 10.6647 12.2351 10.7204 12.1366 10.7204C12.0384 10.7204 11.926 10.7064 11.8137 10.7064C11.7014 10.7064 11.5187 10.7483 11.3643 10.9155C11.21 11.0829 10.7749 11.4873 10.7749 12.3097C10.7749 13.1323 11.3783 13.927 11.4627 14.0384C11.5469 14.1498 12.6278 15.8926 14.3405 16.562C16.0533 17.231 16.0533 17.0078 16.3623 16.9798C16.6709 16.952 17.3588 16.5755 17.4997 16.1854C17.6397 15.7946 17.6397 15.46 17.5978 15.3904Z" fill="white"/>
</svg>
