<svg width="28" height="28" viewBox="0 0 28 28" fill="none" xmlns="http://www.w3.org/2000/svg">
<path d="M14 28C21.732 28 28 21.732 28 14C28 6.26801 21.732 0 14 0C6.26801 0 0 6.26801 0 14C0 21.732 6.26801 28 14 28Z" fill="#FC0D1C"/>
<path fill-rule="evenodd" clip-rule="evenodd" d="M20.0048 17.1306C19.8522 17.7923 19.3109 18.2804 18.6594 18.3531C17.1165 18.5257 15.5549 18.5266 13.9997 18.5257C12.4445 18.5266 10.8826 18.5257 9.33931 18.3531C8.68783 18.2804 8.14688 17.7923 7.9947 17.1306C7.77778 16.1879 7.77778 15.1592 7.77778 14.1889C7.77778 13.2186 7.7803 12.1896 7.99722 11.2472C8.14941 10.5855 8.69035 10.0972 9.34183 10.0243C10.8851 9.85196 12.447 9.85106 14.0023 9.85196C15.5571 9.85106 17.119 9.85196 18.6618 10.0243C19.3136 10.0972 19.8549 10.5853 20.0071 11.2472C20.224 12.1897 20.2222 13.2186 20.2222 14.1889C20.2222 15.1592 20.2217 16.1881 20.0048 17.1306ZM12.3942 16.1204C13.7166 15.4347 15.0275 14.7553 16.3505 14.0692C15.0236 13.3768 13.713 12.6934 12.3942 12.0051C12.3942 13.3816 12.3942 14.7441 12.3942 16.1204Z" fill="#FEFEFE"/>
</svg>
