<svg width="28" height="28" viewBox="0 0 28 28" fill="none" xmlns="http://www.w3.org/2000/svg">
<path d="M14 28C21.732 28 28 21.732 28 14C28 6.26801 21.732 0 14 0C6.26801 0 0 6.26801 0 14C0 21.732 6.26801 28 14 28Z" fill="white"/>
<path fill-rule="evenodd" clip-rule="evenodd" d="M20.0048 17.1305C19.8523 17.7923 19.311 18.2804 18.6595 18.353C17.1165 18.5256 15.555 18.5265 13.9998 18.5256C12.4446 18.5265 10.8827 18.5256 9.33936 18.353C8.68788 18.2804 8.14694 17.7923 7.99475 17.1305C7.77783 16.1878 7.77783 15.1591 7.77783 14.1889C7.77783 13.2186 7.78036 12.1895 7.99728 11.2472C8.14946 10.5854 8.69041 10.0971 9.34188 10.0243C10.8852 9.85191 12.4471 9.85101 14.0023 9.85191C15.5572 9.85101 17.1191 9.85191 18.6618 10.0243C19.3137 10.0971 19.855 10.5853 20.0072 11.2472C20.2241 12.1897 20.2223 13.2186 20.2223 14.1889C20.2223 15.1591 20.2217 16.188 20.0048 17.1305ZM12.3943 16.1204C13.7167 15.4346 15.0276 14.7552 16.3506 14.0691C15.0236 13.3767 13.7131 12.6933 12.3943 12.0051C12.3943 13.3816 12.3943 14.744 12.3943 16.1204Z" fill="#1F2229"/>
</svg>
