<svg width="28" height="28" viewBox="0 0 28 28" fill="none" xmlns="http://www.w3.org/2000/svg">
<path d="M14 28C21.732 28 28 21.732 28 14C28 6.26801 21.732 0 14 0C6.26801 0 0 6.26801 0 14C0 21.732 6.26801 28 14 28Z" fill="url(#paint0_linear)"/>
<path fill-rule="evenodd" clip-rule="evenodd" d="M16.5691 15.0578C15.3293 15.0578 14.3208 16.134 14.3208 17.457C14.3208 17.4656 14.321 17.4742 14.3214 17.48C14.3158 17.6807 14.3422 18.3201 14.8077 19.2011C15.4177 20.3556 16.5143 21.4388 18.0675 22.421C18.0977 22.4436 18.1321 22.4613 18.1693 22.4731C18.2028 22.4836 18.2372 22.4888 18.2714 22.4888C18.3076 22.4888 18.3436 22.483 18.3777 22.4717C18.4182 22.4573 18.4451 22.4432 18.4694 22.426C20.0226 21.4438 21.1192 20.3607 21.7293 19.2062C22.1947 18.3251 22.2211 17.6858 22.2155 17.4849C22.2158 17.4792 22.2162 17.4706 22.2162 17.462C22.2162 16.1391 21.2075 15.0629 19.9677 15.0629C19.3013 15.0629 18.4694 15.4428 18.2709 16.3064C18.0675 15.4378 17.2356 15.0578 16.5691 15.0578Z" fill="url(#paint1_linear)"/>
<path fill-rule="evenodd" clip-rule="evenodd" d="M15.0705 5.35089C14.9645 5.29031 14.8331 5.2892 14.726 5.34818C14.619 5.40717 14.553 5.51714 14.553 5.63634V13.1005C14.553 13.2196 14.619 13.3297 14.726 13.3887C14.7787 13.4178 14.8373 13.4323 14.8958 13.4323C14.9562 13.4323 15.0167 13.4168 15.0705 13.386L21.5836 9.65396C21.6878 9.59411 21.7517 9.48562 21.7517 9.36838C21.7517 9.25127 21.6878 9.14266 21.5836 9.08293L15.0705 5.35089Z" fill="url(#paint2_linear)"/>
<path fill-rule="evenodd" clip-rule="evenodd" d="M11.9986 5.95892C11.9986 5.80261 11.9119 5.659 11.7732 5.58539C11.3981 5.38625 10.8191 5.82979 10.8191 6.38271V17.2839C8.57947 16.2104 5.96094 17.8586 5.96094 20.0871C5.96094 21.2661 6.74358 22.2566 8.52398 22.2566C10.284 22.2566 11.9886 20.674 11.9986 17.962V5.95892Z" fill="url(#paint3_linear)"/>
<defs>
<linearGradient id="paint0_linear" x1="0" y1="0" x2="28" y2="28" gradientUnits="userSpaceOnUse">
<stop stop-color="#414040"/>
<stop offset="1"/>
</linearGradient>
<linearGradient id="paint1_linear" x1="14.3208" y1="15.0578" x2="21.7381" y2="22.9387" gradientUnits="userSpaceOnUse">
<stop stop-color="#FF9D6B"/>
<stop offset="1" stop-color="#FE00FF"/>
</linearGradient>
<linearGradient id="paint2_linear" x1="14.553" y1="5.30469" x2="22.6211" y2="12.4507" gradientUnits="userSpaceOnUse">
<stop stop-color="#99F6B3"/>
<stop offset="1" stop-color="#00F2FF"/>
</linearGradient>
<linearGradient id="paint3_linear" x1="8.97976" y1="5.53691" x2="8.97976" y2="22.2566" gradientUnits="userSpaceOnUse">
<stop stop-color="white"/>
<stop offset="1" stop-color="#E5FBFF"/>
</linearGradient>
</defs>
</svg>
